<svg width="295" height="361" viewBox="0 0 295 361" fill="none" xmlns="http://www.w3.org/2000/svg">
<path fill-rule="evenodd" clip-rule="evenodd" d="M107.5 0C159.691 0 202 44.9954 202 100.5C202 156.005 159.691 201 107.5 201C90.9784 201 75.4479 196.489 61.9355 188.565L87.3018 352H0.698242L30.6523 158.999C19.5421 142.521 13 122.323 13 100.5C13 44.9954 55.3091 0 107.5 0Z" fill="#923B3B"/>
<ellipse cx="129.5" cy="91.5" rx="28.5" ry="27.5" fill="#D9D9D9"/>
<path d="M130.318 342.091C125.273 342.091 120.92 340.977 117.261 338.75C113.625 336.5 110.818 333.364 108.841 329.341C106.886 325.295 105.909 320.591 105.909 315.227C105.909 309.864 106.886 305.136 108.841 301.045C110.818 296.932 113.568 293.727 117.091 291.432C120.636 289.114 124.773 287.955 129.5 287.955C132.227 287.955 134.92 288.409 137.58 289.318C140.239 290.227 142.659 291.705 144.841 293.75C147.023 295.773 148.761 298.455 150.057 301.795C151.352 305.136 152 309.25 152 314.136V317.545H111.636V310.591H143.818C143.818 307.636 143.227 305 142.045 302.682C140.886 300.364 139.227 298.534 137.068 297.193C134.932 295.852 132.409 295.182 129.5 295.182C126.295 295.182 123.523 295.977 121.182 297.568C118.864 299.136 117.08 301.182 115.83 303.705C114.58 306.227 113.955 308.932 113.955 311.818V316.455C113.955 320.409 114.636 323.761 116 326.511C117.386 329.239 119.307 331.318 121.761 332.75C124.216 334.159 127.068 334.864 130.318 334.864C132.432 334.864 134.341 334.568 136.045 333.977C137.773 333.364 139.261 332.455 140.511 331.25C141.761 330.023 142.727 328.5 143.409 326.682L151.182 328.864C150.364 331.5 148.989 333.818 147.057 335.818C145.125 337.795 142.739 339.341 139.898 340.455C137.057 341.545 133.864 342.091 130.318 342.091ZM164.239 341V288.636H172.011V296.545H172.557C173.511 293.955 175.239 291.852 177.739 290.239C180.239 288.625 183.057 287.818 186.193 287.818C186.784 287.818 187.523 287.83 188.409 287.852C189.295 287.875 189.966 287.909 190.42 287.955V296.136C190.148 296.068 189.523 295.966 188.545 295.83C187.591 295.67 186.58 295.591 185.511 295.591C182.966 295.591 180.693 296.125 178.693 297.193C176.716 298.239 175.148 299.693 173.989 301.557C172.852 303.398 172.284 305.5 172.284 307.864V341H164.239ZM219.636 342.091C214.727 342.091 210.5 340.932 206.955 338.614C203.409 336.295 200.682 333.102 198.773 329.034C196.864 324.966 195.909 320.318 195.909 315.091C195.909 309.773 196.886 305.08 198.841 301.011C200.818 296.92 203.568 293.727 207.091 291.432C210.636 289.114 214.773 287.955 219.5 287.955C223.182 287.955 226.5 288.636 229.455 290C232.409 291.364 234.83 293.273 236.716 295.727C238.602 298.182 239.773 301.045 240.227 304.318H232.182C231.568 301.932 230.205 299.818 228.091 297.977C226 296.114 223.182 295.182 219.636 295.182C216.5 295.182 213.75 296 211.386 297.636C209.045 299.25 207.216 301.534 205.898 304.489C204.602 307.42 203.955 310.864 203.955 314.818C203.955 318.864 204.591 322.386 205.864 325.386C207.159 328.386 208.977 330.716 211.318 332.375C213.682 334.034 216.455 334.864 219.636 334.864C221.727 334.864 223.625 334.5 225.33 333.773C227.034 333.045 228.477 332 229.659 330.636C230.841 329.273 231.682 327.636 232.182 325.727H240.227C239.773 328.818 238.648 331.602 236.852 334.08C235.08 336.534 232.727 338.489 229.795 339.943C226.886 341.375 223.5 342.091 219.636 342.091ZM257.17 360.636C255.807 360.636 254.591 360.523 253.523 360.295C252.455 360.091 251.716 359.886 251.307 359.682L253.352 352.591C255.307 353.091 257.034 353.273 258.534 353.136C260.034 353 261.364 352.33 262.523 351.125C263.705 349.943 264.784 348.023 265.761 345.364L267.261 341.273L247.898 288.636H256.625L271.08 330.364H271.625L286.08 288.636H294.807L272.58 348.636C271.58 351.341 270.341 353.58 268.864 355.352C267.386 357.148 265.67 358.477 263.716 359.341C261.784 360.205 259.602 360.636 257.17 360.636Z" fill="#FA6464"/>
</svg>
